<?xml version="1.0" encoding="UTF-8"?>
<!DOCTYPE svg PUBLIC "-//W3C//DTD SVG 1.1//EN" "http://www.w3.org/Graphics/SVG/1.1/DTD/svg11.dtd">
<!-- Creator: CorelDRAW 2020 (64-Bit) -->
<svg xmlns="http://www.w3.org/2000/svg" xml:space="preserve" width="238px" height="191px" version="1.1" style="shape-rendering:geometricPrecision; text-rendering:geometricPrecision; image-rendering:optimizeQuality; fill-rule:evenodd; clip-rule:evenodd"
viewBox="0 0 238 190.79"
 xmlns:xlink="http://www.w3.org/1999/xlink"
 xmlns:xodm="http://www.corel.com/coreldraw/odm/2003">
 <defs>
  <style type="text/css">
   <![CDATA[
    .fil9 {fill:#0083C8;fill-rule:nonzero}
    .fil2 {fill:#1A6699;fill-rule:nonzero}
    .fil11 {fill:#313359;fill-rule:nonzero}
    .fil8 {fill:#64B2E8;fill-rule:nonzero}
    .fil0 {fill:#7AC9F4;fill-rule:nonzero}
    .fil12 {fill:#A96252;fill-rule:nonzero}
    .fil13 {fill:#E6917B;fill-rule:nonzero}
    .fil7 {fill:#F37E84;fill-rule:nonzero}
    .fil6 {fill:#F8AFAC;fill-rule:nonzero}
    .fil5 {fill:#FCB858;fill-rule:nonzero}
    .fil3 {fill:#FE6D48;fill-rule:nonzero}
    .fil10 {fill:#FED7A8;fill-rule:nonzero}
    .fil1 {fill:#FEFEFE;fill-rule:nonzero}
    .fil4 {fill:#70331F;fill-rule:nonzero}
   ]]>
  </style>
 </defs>
 <g id="Layer_x0020_1">
  <metadata id="CorelCorpID_0Corel-Layer"/>
  <g id="_2403825936032">
   <path class="fil0" d="M45.7 176.35l140.5 0c19.65,-18.63 31.92,-44.97 31.92,-74.18 0,-56.43 -45.75,-102.17 -102.17,-102.17 -56.43,0 -102.17,45.74 -102.17,102.17 0,29.21 12.26,55.55 31.92,74.18z"/>
   <path class="fil1" d="M201.96 47.02l-35.38 16.33 36.15 -15.11c-0.25,-0.41 -0.51,-0.82 -0.77,-1.22z"/>
   <path class="fil2" d="M106.12 176.35c39.1,-1.16 82.45,-5.88 93.04,-18.52 19.84,-23.69 16.29,-56.57 16.29,-56.57 -59.66,35.9 -164.84,38.78 -194.38,38.86 5.33,13.3 13.37,25.23 23.45,35.08 4.77,0.47 11.84,0.88 20.37,1.15l41.23 0z"/>
   <path class="fil1" d="M17.89 73.4l161.13 -51.61c0.07,0.06 0.14,0.11 0.21,0.17l-162.06 54.02c0.23,-0.87 0.47,-1.73 0.72,-2.58z"/>
   <path class="fil1" d="M30.9 45.55l115.68 -37.14 -113.65 34.21c-0.7,0.96 -1.37,1.94 -2.03,2.93z"/>
   <path class="fil3" d="M52.54 145.83c-0.58,0.43 -0.86,1.03 -0.63,1.33 0.15,0.2 0.51,0.21 0.9,0.07 0.15,0.12 0.3,0.3 0.29,0.53 -0.83,0.66 -1.32,1.7 -1.26,2.83 -0.18,0.16 -0.5,0.35 -0.87,0.3 -0.15,-0.42 -0.42,-0.7 -0.69,-0.67 -0.38,0.04 -0.62,0.65 -0.53,1.37 0.08,0.71 0.45,1.25 0.82,1.21 0.31,-0.03 0.52,-0.44 0.54,-0.98 0.24,-0.14 0.6,-0.26 1.01,-0.07 0.39,0.89 1.14,1.55 2.04,1.85 0.06,0.25 0.05,0.46 0,0.62 -0.65,-0.1 -1.22,0.13 -1.32,0.56 -0.11,0.46 0.37,0.96 1.07,1.12 0.69,0.16 1.34,-0.08 1.44,-0.54 0.09,-0.36 -0.19,-0.73 -0.64,-0.96 0.03,-0.25 0.15,-0.47 0.27,-0.63 0.2,0.01 0.41,0.01 0.62,-0.02 0.63,-0.07 1.19,-0.31 1.66,-0.66 0.26,0.06 0.59,0.19 0.8,0.5 -0.14,0.25 -0.17,0.52 -0.03,0.7 0.21,0.29 0.74,0.25 1.18,-0.07 0.43,-0.33 0.61,-0.83 0.4,-1.12 -0.18,-0.23 -0.55,-0.25 -0.92,-0.08 -0.28,-0.13 -0.55,-0.36 -0.66,-0.75 0.43,-0.64 0.64,-1.43 0.55,-2.26 -0.05,-0.41 -0.17,-0.79 -0.34,-1.13 0.05,-0.22 0.16,-0.46 0.43,-0.61 0.26,0.15 0.54,0.18 0.73,0.04 0.28,-0.22 0.25,-0.75 -0.09,-1.18 -0.33,-0.44 -0.83,-0.61 -1.11,-0.39 -0.21,0.16 -0.24,0.48 -0.12,0.81 -0.1,0.18 -0.24,0.36 -0.47,0.45 -0.71,-0.7 -1.71,-1.09 -2.78,-0.97 -0.23,0.03 -0.46,0.08 -0.68,0.15 -0.2,-0.05 -0.42,-0.19 -0.47,-0.55 0.34,-0.38 0.48,-0.8 0.31,-1.04 -0.23,-0.3 -0.88,-0.19 -1.45,0.24z"/>
   <path class="fil3" d="M169.21 141.14c-0.27,-0.45 -0.68,-0.7 -0.92,-0.55 -0.16,0.1 -0.2,0.35 -0.12,0.65 -0.1,0.1 -0.24,0.2 -0.41,0.18 -0.42,-0.66 -1.15,-1.09 -1.97,-1.13 -0.11,-0.15 -0.22,-0.39 -0.16,-0.66 0.32,-0.08 0.55,-0.26 0.54,-0.46 0,-0.27 -0.43,-0.49 -0.96,-0.48 -0.53,0 -0.95,0.23 -0.95,0.51 0.01,0.22 0.29,0.41 0.68,0.47 0.09,0.18 0.15,0.45 -0.02,0.74 -0.68,0.22 -1.22,0.71 -1.5,1.35 -0.19,0.03 -0.34,0 -0.45,-0.04 0.12,-0.47 -0.01,-0.9 -0.32,-1.01 -0.32,-0.11 -0.72,0.2 -0.89,0.7 -0.17,0.5 -0.04,0.99 0.29,1.1 0.25,0.08 0.55,-0.09 0.75,-0.4 0.18,0.04 0.33,0.14 0.44,0.24 -0.03,0.15 -0.04,0.3 -0.04,0.46 0.01,0.46 0.14,0.88 0.36,1.25 -0.06,0.19 -0.18,0.42 -0.42,0.55 -0.17,-0.12 -0.37,-0.16 -0.51,-0.07 -0.22,0.14 -0.24,0.52 -0.03,0.87 0.21,0.34 0.56,0.5 0.78,0.37 0.18,-0.11 0.23,-0.38 0.13,-0.66 0.12,-0.2 0.3,-0.38 0.59,-0.43 0.44,0.36 1.01,0.57 1.62,0.56 0.3,0 0.58,-0.06 0.85,-0.16 0.15,0.05 0.32,0.15 0.41,0.36 -0.13,0.18 -0.17,0.38 -0.08,0.53 0.14,0.22 0.53,0.23 0.87,0.02 0.34,-0.21 0.5,-0.56 0.36,-0.78 -0.1,-0.17 -0.33,-0.22 -0.58,-0.15 -0.12,-0.09 -0.24,-0.21 -0.29,-0.38 0.56,-0.46 0.92,-1.17 0.91,-1.95 -0.01,-0.18 -0.03,-0.35 -0.06,-0.51 0.05,-0.15 0.17,-0.29 0.44,-0.31 0.25,0.28 0.54,0.41 0.73,0.3 0.24,-0.14 0.21,-0.63 -0.07,-1.08z"/>
   <path class="fil3" d="M33.39 106.4c-0.12,-0.55 -0.45,-0.95 -0.74,-0.89 -0.2,0.04 -0.33,0.28 -0.35,0.61 -0.14,0.07 -0.32,0.12 -0.48,0.04 -0.2,-0.82 -0.77,-1.52 -1.6,-1.86 -0.05,-0.18 -0.08,-0.47 0.08,-0.72 0.36,0.03 0.65,-0.06 0.72,-0.27 0.09,-0.28 -0.26,-0.66 -0.8,-0.84 -0.54,-0.18 -1.05,-0.1 -1.15,0.18 -0.07,0.23 0.15,0.52 0.52,0.72 0.02,0.22 -0.01,0.51 -0.29,0.74 -0.76,-0.02 -1.49,0.29 -2.01,0.83 -0.2,-0.04 -0.34,-0.12 -0.44,-0.21 0.29,-0.42 0.32,-0.91 0.05,-1.13 -0.29,-0.23 -0.81,-0.05 -1.16,0.39 -0.35,0.44 -0.39,0.98 -0.1,1.21 0.22,0.18 0.59,0.11 0.9,-0.13 0.17,0.1 0.29,0.26 0.36,0.4 -0.08,0.14 -0.15,0.29 -0.2,0.45 -0.16,0.47 -0.18,0.95 -0.08,1.4 -0.13,0.17 -0.34,0.36 -0.63,0.41 -0.13,-0.19 -0.31,-0.3 -0.49,-0.26 -0.28,0.06 -0.43,0.45 -0.34,0.87 0.08,0.42 0.38,0.71 0.66,0.65 0.22,-0.04 0.36,-0.3 0.36,-0.62 0.19,-0.15 0.44,-0.27 0.76,-0.22 0.31,0.52 0.81,0.94 1.43,1.15 0.3,0.11 0.61,0.15 0.92,0.14 0.14,0.11 0.28,0.27 0.29,0.52 -0.2,0.13 -0.31,0.32 -0.27,0.5 0.06,0.28 0.45,0.43 0.87,0.34 0.42,-0.09 0.71,-0.39 0.65,-0.67 -0.04,-0.2 -0.26,-0.33 -0.54,-0.35 -0.09,-0.13 -0.17,-0.3 -0.16,-0.49 0.74,-0.27 1.35,-0.85 1.63,-1.66 0.06,-0.17 0.09,-0.35 0.12,-0.53 0.1,-0.13 0.27,-0.24 0.55,-0.15 0.16,0.37 0.41,0.61 0.64,0.57 0.29,-0.06 0.43,-0.56 0.32,-1.12z"/>
   <path class="fil3" d="M42.93 119.08c-0.29,-0.01 -0.53,0.1 -0.53,0.26 -0.01,0.1 0.1,0.19 0.26,0.24 0.02,0.08 0.02,0.18 -0.04,0.25 -0.43,0 -0.85,0.2 -1.11,0.57 -0.1,0 -0.25,-0.02 -0.35,-0.13 0.06,-0.17 0.04,-0.33 -0.05,-0.39 -0.13,-0.08 -0.36,0.06 -0.51,0.3 -0.16,0.24 -0.18,0.51 -0.05,0.59 0.1,0.07 0.27,-0.01 0.42,-0.17 0.11,0.01 0.25,0.07 0.33,0.23 -0.1,0.38 -0.03,0.78 0.17,1.1 -0.04,0.09 -0.1,0.15 -0.15,0.19 -0.18,-0.19 -0.42,-0.26 -0.56,-0.15 -0.15,0.11 -0.12,0.39 0.05,0.61 0.18,0.23 0.45,0.32 0.6,0.2 0.11,-0.09 0.12,-0.28 0.04,-0.46 0.07,-0.08 0.16,-0.11 0.24,-0.13 0.06,0.05 0.13,0.1 0.2,0.15 0.21,0.14 0.45,0.2 0.69,0.21 0.07,0.09 0.13,0.21 0.12,0.36 -0.11,0.04 -0.18,0.12 -0.18,0.21 -0.01,0.15 0.17,0.27 0.38,0.28 0.22,0 0.41,-0.11 0.41,-0.25 0,-0.12 -0.11,-0.22 -0.27,-0.26 -0.05,-0.11 -0.08,-0.25 -0.01,-0.4 0.29,-0.09 0.56,-0.29 0.74,-0.57 0.09,-0.14 0.15,-0.29 0.18,-0.44 0.07,-0.06 0.17,-0.11 0.29,-0.09 0.04,0.12 0.12,0.2 0.22,0.2 0.14,0 0.26,-0.17 0.27,-0.39 0.01,-0.22 -0.11,-0.4 -0.25,-0.41 -0.11,0 -0.2,0.09 -0.24,0.23 -0.08,0.03 -0.17,0.05 -0.27,0.02 -0.04,-0.4 -0.26,-0.77 -0.62,-1 -0.08,-0.06 -0.17,-0.1 -0.26,-0.13 -0.04,-0.07 -0.08,-0.16 0,-0.29 0.2,-0.03 0.35,-0.13 0.36,-0.25 0,-0.15 -0.23,-0.28 -0.52,-0.29z"/>
   <path class="fil3" d="M168.97 83.72c-0.02,0.72 0.27,1.31 0.65,1.32 0.26,0.01 0.49,-0.26 0.62,-0.66 0.2,-0.05 0.43,-0.05 0.6,0.1 0.01,1.07 0.52,2.11 1.45,2.76 0,0.25 -0.04,0.62 -0.31,0.87 -0.44,-0.14 -0.82,-0.1 -0.97,0.13 -0.2,0.32 0.13,0.89 0.75,1.28 0.61,0.38 1.27,0.43 1.47,0.1 0.16,-0.25 -0.03,-0.68 -0.43,-1.03 0.03,-0.28 0.16,-0.64 0.57,-0.84 0.94,0.25 1.94,0.08 2.74,-0.45 0.23,0.11 0.38,0.25 0.48,0.39 -0.48,0.44 -0.66,1.04 -0.38,1.39 0.29,0.37 0.98,0.31 1.54,-0.14 0.56,-0.45 0.78,-1.11 0.49,-1.48 -0.23,-0.29 -0.7,-0.31 -1.16,-0.1 -0.19,-0.17 -0.28,-0.4 -0.34,-0.6 0.14,-0.15 0.27,-0.32 0.39,-0.5 0.33,-0.53 0.5,-1.13 0.51,-1.71 0.21,-0.18 0.52,-0.35 0.89,-0.33 0.11,0.28 0.31,0.46 0.54,0.47 0.36,0.01 0.66,-0.43 0.68,-0.98 0.01,-0.55 -0.27,-1 -0.63,-1.01 -0.29,0 -0.54,0.28 -0.64,0.67 -0.27,0.14 -0.62,0.21 -1,0.06 -0.24,-0.75 -0.73,-1.41 -1.44,-1.85 -0.35,-0.22 -0.72,-0.36 -1.1,-0.44 -0.14,-0.18 -0.26,-0.42 -0.21,-0.73 0.28,-0.11 0.48,-0.31 0.48,-0.54 0.01,-0.36 -0.43,-0.67 -0.98,-0.68 -0.54,-0.01 -0.99,0.28 -1,0.64 -0.01,0.26 0.23,0.49 0.56,0.6 0.08,0.19 0.13,0.42 0.06,0.65 -0.99,0.12 -1.92,0.67 -2.5,1.58 -0.12,0.2 -0.22,0.41 -0.3,0.63 -0.17,0.13 -0.42,0.21 -0.74,0.03 -0.08,-0.51 -0.32,-0.89 -0.62,-0.89 -0.38,-0.01 -0.7,0.56 -0.72,1.29z"/>
   <path class="fil3" d="M185.63 77.46c0.56,0.02 1.03,-0.2 1.04,-0.49 0.01,-0.21 -0.2,-0.39 -0.51,-0.49 -0.03,-0.15 -0.04,-0.34 0.08,-0.47 0.83,0.01 1.65,-0.38 2.16,-1.1 0.19,0 0.48,0.04 0.68,0.25 -0.12,0.34 -0.09,0.64 0.09,0.75 0.24,0.16 0.69,-0.09 0.99,-0.56 0.31,-0.48 0.35,-0.99 0.1,-1.15 -0.2,-0.13 -0.53,0.02 -0.81,0.33 -0.21,-0.03 -0.49,-0.14 -0.64,-0.46 0.2,-0.72 0.07,-1.5 -0.33,-2.12 0.09,-0.18 0.2,-0.3 0.31,-0.38 0.34,0.38 0.8,0.53 1.07,0.31 0.29,-0.22 0.25,-0.76 -0.09,-1.2 -0.35,-0.44 -0.86,-0.61 -1.15,-0.39 -0.22,0.18 -0.24,0.54 -0.08,0.9 -0.14,0.14 -0.32,0.22 -0.47,0.26 -0.12,-0.11 -0.25,-0.22 -0.39,-0.31 -0.41,-0.26 -0.87,-0.39 -1.33,-0.41 -0.13,-0.16 -0.27,-0.41 -0.24,-0.7 0.21,-0.08 0.36,-0.23 0.36,-0.41 0.01,-0.28 -0.32,-0.52 -0.75,-0.53 -0.42,-0.02 -0.78,0.2 -0.79,0.48 -0.01,0.22 0.21,0.42 0.52,0.5 0.1,0.21 0.15,0.49 0.03,0.78 -0.58,0.17 -1.1,0.55 -1.45,1.1 -0.17,0.27 -0.29,0.55 -0.35,0.85 -0.14,0.11 -0.33,0.2 -0.56,0.16 -0.09,-0.22 -0.24,-0.38 -0.43,-0.38 -0.28,-0.01 -0.51,0.33 -0.53,0.75 -0.01,0.43 0.21,0.78 0.49,0.79 0.2,0 0.38,-0.17 0.47,-0.43 0.15,-0.07 0.33,-0.1 0.51,-0.05 0.08,0.78 0.5,1.51 1.2,1.96 0.16,0.1 0.32,0.18 0.49,0.24 0.1,0.13 0.16,0.33 0.01,0.57 -0.39,0.06 -0.68,0.25 -0.69,0.48 -0.01,0.3 0.43,0.55 0.99,0.57z"/>
   <path class="fil3" d="M65.87 84.12c0.24,0.01 0.43,-0.08 0.43,-0.2 0.01,-0.09 -0.08,-0.16 -0.21,-0.2 -0.01,-0.07 -0.01,-0.14 0.04,-0.2 0.34,0 0.68,-0.16 0.89,-0.45 0.08,0 0.2,0.01 0.28,0.1 -0.05,0.14 -0.04,0.26 0.04,0.31 0.1,0.07 0.28,-0.04 0.41,-0.23 0.12,-0.2 0.14,-0.41 0.04,-0.48 -0.08,-0.05 -0.22,0.01 -0.34,0.14 -0.08,-0.01 -0.2,-0.06 -0.26,-0.19 0.08,-0.3 0.03,-0.62 -0.14,-0.88 0.04,-0.08 0.08,-0.12 0.13,-0.16 0.14,0.16 0.33,0.22 0.44,0.13 0.12,-0.09 0.11,-0.31 -0.03,-0.49 -0.15,-0.19 -0.36,-0.26 -0.48,-0.17 -0.09,0.08 -0.1,0.23 -0.03,0.38 -0.06,0.05 -0.14,0.09 -0.2,0.1 -0.05,-0.04 -0.1,-0.09 -0.16,-0.12 -0.17,-0.11 -0.36,-0.17 -0.55,-0.17 -0.05,-0.07 -0.11,-0.17 -0.1,-0.29 0.09,-0.04 0.15,-0.1 0.15,-0.17 0.01,-0.12 -0.13,-0.22 -0.31,-0.22 -0.18,-0.01 -0.32,0.08 -0.33,0.19 0,0.1 0.09,0.18 0.22,0.21 0.04,0.09 0.06,0.2 0.01,0.32 -0.24,0.08 -0.45,0.23 -0.6,0.46 -0.07,0.11 -0.12,0.23 -0.14,0.35 -0.06,0.05 -0.14,0.09 -0.24,0.07 -0.03,-0.09 -0.1,-0.16 -0.17,-0.16 -0.12,0 -0.22,0.14 -0.22,0.31 -0.01,0.18 0.08,0.32 0.2,0.33 0.08,0 0.16,-0.07 0.19,-0.18 0.06,-0.03 0.14,-0.04 0.21,-0.02 0.04,0.32 0.21,0.62 0.5,0.81 0.07,0.04 0.14,0.08 0.2,0.1 0.04,0.06 0.07,0.14 0.01,0.24 -0.17,0.02 -0.29,0.1 -0.29,0.2 0,0.12 0.18,0.22 0.41,0.23z"/>
   <path class="fil3" d="M204.02 105.81c-0.25,-0.41 -0.63,-0.63 -0.84,-0.5 -0.15,0.09 -0.18,0.32 -0.11,0.59 -0.09,0.09 -0.22,0.18 -0.37,0.16 -0.38,-0.59 -1.04,-0.99 -1.79,-1.02 -0.09,-0.14 -0.2,-0.36 -0.14,-0.6 0.29,-0.07 0.49,-0.23 0.49,-0.42 0,-0.25 -0.39,-0.44 -0.87,-0.44 -0.48,0.01 -0.86,0.22 -0.86,0.47 0,0.2 0.26,0.37 0.61,0.42 0.08,0.17 0.14,0.42 -0.02,0.67 -0.61,0.2 -1.1,0.65 -1.36,1.23 -0.17,0.02 -0.3,0 -0.41,-0.04 0.12,-0.42 0,-0.82 -0.28,-0.91 -0.29,-0.1 -0.66,0.18 -0.81,0.63 -0.15,0.45 -0.03,0.9 0.26,1 0.23,0.07 0.5,-0.08 0.68,-0.37 0.17,0.04 0.3,0.13 0.4,0.22 -0.02,0.13 -0.03,0.27 -0.03,0.42 0,0.41 0.13,0.8 0.33,1.13 -0.06,0.18 -0.17,0.38 -0.38,0.5 -0.16,-0.11 -0.34,-0.14 -0.47,-0.06 -0.2,0.12 -0.21,0.47 -0.03,0.78 0.19,0.31 0.51,0.46 0.71,0.34 0.17,-0.1 0.21,-0.35 0.12,-0.6 0.1,-0.18 0.27,-0.34 0.54,-0.39 0.39,0.33 0.9,0.52 1.46,0.51 0.27,0 0.53,-0.05 0.77,-0.15 0.14,0.05 0.29,0.14 0.38,0.33 -0.12,0.16 -0.16,0.35 -0.08,0.48 0.13,0.2 0.48,0.21 0.79,0.02 0.31,-0.19 0.45,-0.51 0.33,-0.71 -0.09,-0.15 -0.3,-0.19 -0.53,-0.13 -0.11,-0.08 -0.22,-0.19 -0.27,-0.35 0.51,-0.42 0.84,-1.05 0.83,-1.77 0,-0.16 -0.02,-0.31 -0.06,-0.46 0.05,-0.13 0.16,-0.26 0.4,-0.27 0.23,0.25 0.5,0.37 0.67,0.27 0.21,-0.13 0.18,-0.57 -0.06,-0.98z"/>
   <path class="fil1" d="M0 180.79c0,0 37.07,-27.77 39.73,-28.44 2.67,-0.66 155.06,-0.22 157.28,-0.22 2.22,0 40.99,27.88 40.99,27.88l-238 0.78z"/>
   <path class="fil4" d="M238 180.01l0 9.96c0,0.45 -0.37,0.82 -0.81,0.82l-235.37 0c-0.45,0 -0.82,-0.37 -0.82,-0.82l0 -9.96 237 0z"/>
   <path class="fil5" d="M237.65 179.55l-34.93 -24.09c-2.1,-1.44 -4.59,-2.22 -7.15,-2.22l-152.14 0c-2.55,0 -5.04,0.78 -7.14,2.22l-34.94 24.09c-0.65,0.44 -0.33,1.46 0.46,1.46l235.39 0c0.78,0 1.1,-1.02 0.45,-1.46z"/>
   <polygon class="fil1" points="4.63,181.01 46.69,180.49 90.38,180.94 46.77,181.08 "/>
   <path class="fil3" d="M204.1 158.66c-1.58,-1.11 -5.3,-4.21 -7.63,-4.31l-153.93 0c-2.33,0.1 -6.06,3.2 -7.64,4.31l-24.61 18.91 218.42 0 -24.61 -18.91z"/>
   <path class="fil4" d="M125.16 162.18c0,2.92 -11.88,5.28 -26.54,5.28 -14.65,0 -26.53,-2.36 -26.53,-5.28 0,-2.91 11.88,-5.27 26.53,-5.27 14.66,0 26.54,2.36 26.54,5.27z"/>
   <path class="fil4" d="M176.52 170.13c0,4.47 -16.21,8.09 -36.21,8.09 -20,0 -36.21,-3.62 -36.21,-8.09 0,-4.48 16.21,-8.1 36.21,-8.1 20,0 36.21,3.62 36.21,8.1z"/>
   <path class="fil1" d="M46.84 156.91c0,0.37 -0.72,0.66 -1.61,0.66 -0.89,0 -1.61,-0.29 -1.61,-0.66 0,-0.37 0.72,-0.67 1.61,-0.67 0.89,0 1.61,0.3 1.61,0.67z"/>
   <path class="fil1" d="M49.95 159.46c0,0.25 -0.45,0.45 -1,0.45 -0.55,0 -1,-0.2 -1,-0.45 0,-0.24 0.45,-0.44 1,-0.44 0.55,0 1,0.2 1,0.44z"/>
   <path class="fil1" d="M163.91 168.79c0,0.74 -1.49,1.34 -3.33,1.34 -1.84,0 -3.33,-0.6 -3.33,-1.34 0,-0.73 1.49,-1.33 3.33,-1.33 1.84,0 3.33,0.6 3.33,1.33z"/>
   <path class="fil6" d="M109.49 111.04l-22.66 0.44c0,0 -3.33,-23.55 -6.89,-36.88 -3.55,-13.32 -8.22,-37.76 -8.66,-42.2 -0.27,-2.7 -0.3,-13.74 -0.27,-22 11.31,-5.56 23.8,-9.08 37,-10.1 0.16,9.79 0.49,33.5 0.15,43.43 -0.45,12.66 -1.56,35.76 -0.89,42.42 0.66,6.67 2.22,24.89 2.22,24.89z"/>
   <path class="fil7" d="M108.37 109.48l-4.21 0.67c0,0 -2.67,-45.1 -3.11,-53.76 -0.45,-8.66 -2.23,-20.88 -2.23,-20.88 0,0 4.22,-1.11 4.01,-8.89 -0.15,-4.91 -1.17,-17.15 -1.91,-25.52 1.91,-0.28 3.84,-0.5 5.78,-0.68 0.13,12.82 0.34,34.69 0.34,38.42 0,5.33 -1.55,40.65 -1.11,44.87 0.45,4.22 2.44,25.77 2.44,25.77z"/>
   <polygon class="fil7" points="97.94,110.81 97.05,62.83 102.82,110.15 "/>
   <path class="fil1" d="M79.05 31.51c0,0.92 -0.74,1.66 -1.66,1.66 -0.92,0 -1.67,-0.74 -1.67,-1.66 0,-0.92 0.75,-1.67 1.67,-1.67 0.92,0 1.66,0.75 1.66,1.67z"/>
   <path class="fil1" d="M80.5 36.17c0,0.37 -0.3,0.67 -0.67,0.67 -0.37,0 -0.67,-0.3 -0.67,-0.67 0,-0.37 0.3,-0.66 0.67,-0.66 0.37,0 0.67,0.29 0.67,0.66z"/>
   <polygon class="fil1" points="83.35,78.75 74.91,43.5 80.98,72.53 "/>
   <path class="fil8" d="M78.46 156.65c0,0 5.48,-18.96 5.78,-20.73 0.29,-1.78 0.88,-25.92 0.88,-25.92 0,0 14.52,-4.3 25.48,-1.04 0,0 1.03,25.62 1.48,28.44 0.44,2.81 3.4,18.8 2.96,19.99 0,0 -3.41,2.81 -12.44,3.26 -9.03,0.44 -22.66,-2.82 -24.14,-4z"/>
   <path class="fil9" d="M101.16 124.92l-0.56 -15.77c0,0 4,-0.56 9.33,1 0,0 1.11,24.21 1.45,26.65 0.33,2.45 0.88,13.22 0.88,13.22l0.56 -3.11 1.78 11 -3.22 0.55c0,0 -1.67,-16.99 -2.78,-21.77 -1.11,-4.77 -4,-9.99 -7.44,-11.77z"/>
   <path class="fil9" d="M100.38 160.69c0,0 2,-27.55 0.89,-32.66 0,0 7.88,0.55 8.88,30.88l-9.77 1.78z"/>
   <path class="fil1" d="M84.27 159.02c0,0 4.56,-24.33 9.56,-27.66 4.99,-3.33 9.88,-2.33 12.21,6.11 2.34,8.44 3,22.1 3,22.1 0,0 -16.66,2.56 -24.77,-0.55z"/>
   <path class="fil10" d="M101.82 131.14c0,0 1.11,16.11 -2.89,27.99l9.45 -0.45c0,0 -0.89,-25.54 -6.56,-27.54z"/>
   <path class="fil11" d="M81.72 158.8c0,0 6.77,-28.11 10.44,-31.77 3.67,-3.67 9.44,-4.55 13.88,1.44 4.45,6 5.34,29.99 5.34,29.99l-0.78 0.22c0,0 -0.45,-23.54 -5.78,-29.21 -5.33,-5.66 -11.77,-3.33 -14.44,3.33 -2.66,6.67 -7.77,23.66 -8.22,26.44l-0.44 -0.44z"/>
   <path class="fil9" d="M99.86 119.77c0,-0.22 -0.59,-10.44 -0.59,-10.44l-2.07 0.15 2.66 10.29z"/>
   <polygon class="fil1" points="91.57,110 86.16,111.11 86.31,114.07 86.83,111.48 "/>
   <path class="fil1" d="M103.43 146.97c0,0.95 -0.77,1.72 -1.72,1.72 -0.95,0 -1.72,-0.77 -1.72,-1.72 0,-0.95 0.77,-1.73 1.72,-1.73 0.95,0 1.72,0.78 1.72,1.73z"/>
   <path class="fil1" d="M104.21 143.55c0,0.39 -0.31,0.7 -0.69,0.7 -0.39,0 -0.7,-0.31 -0.7,-0.7 0,-0.38 0.31,-0.69 0.7,-0.69 0.38,0 0.69,0.31 0.69,0.69z"/>
   <polygon class="fil1" points="85.2,133.4 86.98,127.4 85.2,131.33 "/>
   <path class="fil1" d="M77.55 161.83l0.69 -5.88c0,0 9.73,2.28 21.39,1.98 11.65,-0.29 15.84,-1.46 15.84,-1.46l0.17 7.14c0,0 -11.35,1.92 -20.68,1.78 -10.41,-0.17 -17.41,-3.56 -17.41,-3.56z"/>
   <path class="fil10" d="M115.64 163.61l-0.15 -6.27c-3.07,0.45 -8.47,1.12 -14.43,1.23 0,0 -0.4,6.16 -4.18,6.04 -3.14,-0.11 -11.82,-0.78 -19.29,-3.07l-0.04 0.29c0,0 7,3.39 17.41,3.56 9.33,0.14 20.68,-1.78 20.68,-1.78z"/>
   <path class="fil6" d="M161.16 10.53c-1.94,6.78 -5.67,20.32 -6.8,28.08 -1.56,10.67 -2.45,16.45 -2.45,16.45l-28.43 -11.33c0,0 1.11,-9.56 1.11,-19.11 0,-8.49 0,-17.16 1.41,-24.13 12.52,1.23 24.37,4.71 35.16,10.04z"/>
   <path class="fil1" d="M127.72 0.68c-1.37,6.2 -2.09,15.94 -2.09,15.94 -0.45,-6.83 0.27,-12.58 0.9,-16.08 0.4,0.04 0.79,0.09 1.19,0.14z"/>
   <path class="fil7" d="M160.67 10.29c-1.42,4.54 -3.37,11.06 -4.42,15.66 -1.78,7.78 -4.11,23.22 -4.11,23.22l-14.88 -15.77 2.88 -7.55c0,0 7.59,-2.59 12.43,-19.08 2.76,1.06 5.46,2.23 8.1,3.52z"/>
   <path class="fil1" d="M134.07 4.48c0,0.61 -0.5,1.11 -1.11,1.11 -0.61,0 -1.11,-0.5 -1.11,-1.11 0,-0.61 0.5,-1.11 1.11,-1.11 0.61,0 1.11,0.5 1.11,1.11z"/>
   <path class="fil1" d="M134.96 7.96c0,0.29 -0.23,0.52 -0.52,0.52 -0.29,0 -0.52,-0.23 -0.52,-0.52 0,-0.29 0.23,-0.52 0.52,-0.52 0.29,0 0.52,0.23 0.52,0.52z"/>
   <path class="fil8" d="M117.19 54.24l5.07 -8.74 1.33 -7.33c0,0 4.78,-7.55 13.55,-5.77 8.78,1.77 15.89,13.32 16.11,18.21 0.22,4.89 -0.78,25.1 -0.56,26.55 0.23,1.44 0.34,5.89 0.34,8.44 0,2.55 2.33,23.44 2.55,25.66l-36.1 -53.32 -2.29 -3.7z"/>
   <path class="fil1" d="M125.93 38.52c0,0.14 -0.11,0.24 -0.25,0.24 -0.13,0 -0.24,-0.1 -0.24,-0.24 0,-0.13 0.11,-0.24 0.24,-0.24 0.14,0 0.25,0.11 0.25,0.24z"/>
   <path class="fil1" d="M118.99 51.13c2.09,-3.04 5.79,-8.33 5.79,-8.33l-1.96 1.78 1.33 -6.26c0,0 3.74,-4.52 8.85,-5.26 0,0 -4.59,-0.22 -9.41,5.11l-1.33 7.33 -3.27 5.63z"/>
   <path class="fil9" d="M153.03 85.6c0,-2.55 -0.11,-7 -0.34,-8.44 -0.13,-0.87 0.18,-8.57 0.4,-15.61 -0.09,-4.4 -0.14,-11.38 -0.14,-11.38 0,0 -0.42,10.05 -0.59,12.44 -0.17,2.39 -2.89,14.49 -2.89,14.49 0,0 1.45,17.55 1.89,20.55 0.38,2.58 3.34,10.84 4.17,13.12 -0.4,-3.8 -2.5,-22.74 -2.5,-25.17z"/>
   <path class="fil9" d="M135.09 42.06l1.61 -9.11c0,0 7.33,1.22 11.55,7.67 4.22,6.44 4.7,9.55 4.7,9.55 0,0 -0.81,10.22 -1.03,12.1 -0.23,1.89 -2.84,12.61 -2.84,12.61 0,0 -3.22,-12.49 -3.99,-13.38 -0.78,-0.89 -3.61,-5.17 -3.61,-5.17 0,0 -0.78,-5.83 -1.73,-8.72 -0.94,-2.88 -1.55,-3.83 -4.66,-5.55z"/>
   <path class="fil11" d="M148.81 75.12c0,0 2.51,-10.29 3.11,-14.81 0.59,-4.51 1.03,-10.14 1.03,-10.14 0,0 -0.66,9.03 -0.74,10.81 -0.07,1.78 -3.11,15.7 -3.11,15.7l-0.29 -1.56z"/>
   <path class="fil11" d="M121.63 52.17c0,0 3.78,-4.82 4.44,-6.59 0.67,-1.78 2.15,-4.08 7.7,-3.78 5.56,0.3 7.41,7.26 8.22,15.11l-0.96 -0.45c0,0 -0.29,-10.29 -3.7,-12.73 -3.41,-2.45 -6.96,-1.71 -8.67,-0.6 -1.7,1.11 -1.99,1.78 -2.22,3.04 -0.22,1.26 -3.26,5.85 -3.26,5.85l-1.55 0.15z"/>
   <path class="fil9" d="M134.66 45.24l0.23 -2.51c0,0 3.22,0.7 4.51,4.92 1.3,4.22 1.37,7.74 1.37,7.74l-6.74 -2.63 0.63 -7.52z"/>
   <path class="fil1" d="M124.37 52.17c0,0 2.39,-3.5 2.89,-5.17 0.5,-1.66 1.78,-4.27 5.5,-3.88 3.72,0.38 4.99,1.33 5.77,4.94 0.78,3.61 0.72,7 0.72,7l-14.88 -2.89z"/>
   <path class="fil10" d="M131.74 52.46c0,0 2.63,-4.55 3,-8.81 0,0 2.33,0.41 3.14,2.96 0.82,2.56 1,5.67 1.11,7.85l-7.25 -2z"/>
   <path class="fil1" d="M143.62 150.28c-12.73,2.07 -19.54,-0.15 -23.84,-13.48 -4.3,-13.32 0.74,-25.17 0.59,-32.13 -0.15,-6.96 -2.96,-15.11 -4.59,-19.85 0,0 -0.36,-1 -0.86,-2.65 0,-0.02 -0.01,-0.04 -0.02,-0.06 -0.63,-2.11 -1.46,-5.26 -1.99,-8.68 0,0 0,0 0,0 -0.28,-1.82 -0.47,-3.71 -0.5,-5.57 -0.06,-2.61 0.21,-5.16 1,-7.32 3.26,-8.89 9.04,-10.22 16.89,-9.19 7.84,1.04 16.58,4 18.8,21.03 2.22,17.03 3.11,25.62 7.26,39.69 0.49,1.66 0.86,3.43 1.12,5.26 1.93,13.73 -2.62,31.12 -13.86,32.95z"/>
   <path class="fil12" d="M143.62 150.28c-12.73,2.07 -19.54,-0.15 -23.84,-13.48 -4.3,-13.32 0.74,-25.17 0.59,-32.13 -0.15,-6.96 -2.96,-15.11 -4.59,-19.85 0,0 -0.36,-1 -0.86,-2.65 0,-0.02 -0.01,-0.04 -0.02,-0.06 -0.63,-2.11 -1.46,-5.26 -1.99,-8.68 0,0 0,0 0,0 -0.13,-3.67 0.07,-7.22 1.02,-9.38 2.06,-4.64 6.33,-7.69 11.55,-8.41 1.52,-0.21 3.12,-0.23 4.78,-0.03 7.33,0.89 13.99,5.89 15.55,20.1 1.55,14.22 4,22.55 6.99,29.66 1.67,3.94 3.39,7.81 4.68,11.96 1.93,13.73 -2.62,31.12 -13.86,32.95z"/>
   <polygon class="fil13" points="133.65,79.94 133.7,79.63 141.92,79.46 141.89,79.1 133.62,79.41 "/>
   <polygon class="fil13" points="134.03,71.58 141.45,71.58 141.36,71.13 "/>
   <polygon class="fil13" points="117.32,73.19 122.87,72.58 117.35,72.72 "/>
   <polygon class="fil13" points="118.96,82.46 125.59,80.68 118.84,82.13 "/>
   <polygon class="fil13" points="121.43,90.4 128.59,88.82 128.76,89.49 128.65,88.46 121.32,90.07 "/>
   <polygon class="fil13" points="134.09,89.77 133.98,88.35 142.61,87.99 142.7,88.51 134.2,88.68 "/>
   <polygon class="fil13" points="143.81,126.18 143.47,125.25 151.88,122.51 151.95,123.1 143.73,125.44 "/>
   <polygon class="fil13" points="124.59,135.77 130.78,133.66 124.37,135.21 "/>
   <polygon class="fil13" points="122.63,124.81 130.81,125.29 122.52,124.18 "/>
   <polygon class="fil13" points="124.22,114 132.66,116.11 124.33,113.44 "/>
   <polygon class="fil13" points="141.25,115.59 149.19,112.2 148.75,111.48 140.53,115.09 141.7,117.53 "/>
   <path class="fil10" d="M113.56 66.83c-1.05,3.9 0.34,11.06 1.34,15.28 -0.63,-2.11 -1.46,-5.26 -1.99,-8.68 0,0 0,0 0,0 -0.28,-1.82 -0.47,-3.71 -0.5,-5.57 0.25,-1.95 0.96,-4.3 2.78,-7.1 2.51,-3.87 7.4,-4.88 10.29,-5.12 1.37,-0.12 2.3,-0.07 2.3,-0.07 -8.37,0.23 -12.67,5.48 -14.22,11.26z"/>
   <path class="fil1" d="M121.56 61.02c0,0.42 -0.35,0.77 -0.78,0.77 -0.43,0 -0.78,-0.35 -0.78,-0.77 0,-0.43 0.35,-0.78 0.78,-0.78 0.43,0 0.78,0.35 0.78,0.78z"/>
   <path class="fil1" d="M123.56 58.46c0,0.25 -0.2,0.45 -0.45,0.45 -0.24,0 -0.44,-0.2 -0.44,-0.45 0,-0.24 0.2,-0.44 0.44,-0.44 0.25,0 0.45,0.2 0.45,0.44z"/>
   <path class="fil11" d="M151.84 127.62c-0.59,8.52 -2.22,13.11 -7.03,15.4 -4.82,2.3 -10.74,2.82 -15.55,-0.51 -4.82,-3.34 -6.59,-14.22 -6.37,-17.92 0.22,-3.71 2.15,-12.15 2.07,-17.85 -0.07,-5.7 -2.07,-12.44 -2.66,-14.22 0,0 -4.59,-13.55 -4.82,-17.03 -0.22,-3.48 0.67,-10.51 6.82,-12.73 6.14,-2.23 12.81,0.37 14.44,3.03 1.62,2.67 2.66,3.33 2.88,9.41 0.23,6.07 0.89,15.03 2.22,21.62 1.34,6.59 3.71,11.77 4.3,13.18 0.59,1.41 4.29,9.11 3.7,17.62zm0.52 -2.03c-0.11,-7.89 -2.78,-12.78 -5.66,-20 -2.89,-7.22 -4.45,-20.77 -4.67,-30.21 -0.22,-9.44 -4.66,-13.66 -12.77,-13.66 -8.11,0 -11.89,4.44 -12.44,11.33 -0.56,6.89 4.33,17.21 5.88,23.88 1.56,6.66 1.14,12.77 1.12,13.11 -0.12,1.22 -0.34,4.66 -1,8.44 -0.67,3.77 -1.56,10.99 1.44,18.1 3,7.11 6.44,10.77 16.33,9 9.88,-1.78 11.88,-12.11 11.77,-19.99z"/>
   <polygon class="fil11" points="122.26,94.1 128.92,93.04 128.98,91.15 129.31,93.54 122.59,94.49 "/>
   <polygon class="fil11" points="134.15,91.43 134.76,93.04 143.25,92.49 143.25,92.93 134.48,93.38 "/>
   <path class="fil11" d="M120.04 86.6c0.17,-0.11 6.72,-1.61 6.72,-1.61l-0.95 -4.11 1.34 4.44 -6.94 1.67 -0.17 -0.39z"/>
   <path class="fil11" d="M133.65 80.71c0,0.17 0.44,3.89 0.44,3.89l8.16 -0.17 0.11 0.56 -8.49 -0.06 -0.22 -4.22z"/>
   <path class="fil11" d="M117.74 78.57c0.11,-0.04 7.26,-1.67 7.26,-1.67l-1.52 -4.11 1.15 3.81 -6.89 1.52 0 0.45z"/>
   <polygon class="fil11" points="133.14,72.01 133.37,76.23 141.88,76.01 141.92,75.68 133.51,75.71 "/>
   <polygon class="fil11" points="129.93,101.86 138.6,100.9 139.12,104.9 130.45,105.79 "/>
   <polygon class="fil11" points="123.11,119.66 131.44,121.51 132.92,116.63 131.55,122.14 123.07,120.11 "/>
   <path class="fil11" d="M123.48 131.29l7.67 -0.48c0,0 -0.3,-3.63 0.03,-5.56 0,0 -0.66,2.3 -0.37,5.15l-7.55 0.41 0.22 0.48z"/>
   <path class="fil11" d="M128.26 142.32c0.07,-0.11 4.48,-3.11 4.48,-3.11 0,0 -1.52,-3.44 -1.63,-5.81 0,0 0.89,3.85 2,5.92l-4.56 3.3 -0.29 -0.3z"/>
   <polygon class="fil11" points="143.4,139.47 146.7,142.28 146.33,142.51 "/>
   <polygon class="fil11" points="151.88,129.47 145.36,130.51 144.66,129.03 145.4,130.92 151.95,129.84 "/>
   <path class="fil11" d="M151.1 117.85c-0.11,0 -8.14,2.44 -8.14,2.44l7.99 -2.81 0.15 0.37z"/>
   <path class="fil13" d="M143.7 138.29c0,0 1.26,-2.3 1.59,-3.97l5.52 0.97 0.11 -0.63 -5.89 -0.78c0,0 0.04,1.37 -1.33,4.41z"/>
   <path class="fil1" d="M134.74 49.06c0,0.55 -0.69,1 -1.54,1 -0.85,0 -1.54,-0.45 -1.54,-1 0,-0.55 0.69,-1 1.54,-1 0.85,0 1.54,0.45 1.54,1z"/>
   <path class="fil1" d="M135.81 47.22c0,0.24 -0.24,0.43 -0.54,0.43 -0.29,0 -0.53,-0.19 -0.53,-0.43 0,-0.23 0.24,-0.42 0.53,-0.42 0.3,0 0.54,0.19 0.54,0.42z"/>
   <polygon class="fil9" points="134.26,40.39 135.14,35.32 134.48,35.36 135.96,33.99 "/>
   <polygon class="fil1" points="68.24,122.59 64.84,122.59 64.84,119.18 59.5,119.18 59.5,122.59 56.1,122.59 56.1,127.92 59.5,127.92 59.5,131.33 64.84,131.33 64.84,127.92 68.24,127.92 "/>
   <polygon class="fil1" points="189.68,119.71 185.44,119.71 185.44,115.48 178.81,115.48 178.81,119.71 174.57,119.71 174.57,126.35 178.81,126.35 178.81,130.58 185.44,130.58 185.44,126.35 189.68,126.35 "/>
   <polygon class="fil1" points="149.1,161.58 145.94,161.58 145.94,158.43 141,158.43 141,161.58 137.85,161.58 137.85,166.52 141,166.52 141,169.68 145.94,169.68 145.94,166.52 149.1,166.52 "/>
   <polygon class="fil1" points="169.24,50.61 167.5,50.61 167.5,48.87 164.77,48.87 164.77,50.61 163.02,50.61 163.02,53.34 164.77,53.34 164.77,55.09 167.5,55.09 167.5,53.34 169.24,53.34 "/>
   <polygon class="fil1" points="114.45,117.48 112.11,117.48 112.11,115.15 108.46,115.15 108.46,117.48 106.12,117.48 106.12,121.14 108.46,121.14 108.46,123.48 112.11,123.48 112.11,121.14 114.45,121.14 "/>
   <polygon class="fil1" points="60.39,94.57 55.34,94.57 55.34,89.52 47.43,89.52 47.43,94.57 42.38,94.57 42.38,102.48 47.43,102.48 47.43,107.53 55.34,107.53 55.34,102.48 60.39,102.48 "/>
  </g>
 </g>
</svg>
