<?xml version="1.0" encoding="UTF-8"?>
<!DOCTYPE svg PUBLIC "-//W3C//DTD SVG 1.1//EN" "http://www.w3.org/Graphics/SVG/1.1/DTD/svg11.dtd">
<!-- Creator: CorelDRAW 2020 (64-Bit) -->
<svg xmlns="http://www.w3.org/2000/svg" xml:space="preserve" width="32px" height="32px" version="1.1" style="shape-rendering:geometricPrecision; text-rendering:geometricPrecision; image-rendering:optimizeQuality; fill-rule:evenodd; clip-rule:evenodd"
viewBox="0 0 0.71 0.71"
 xmlns:xlink="http://www.w3.org/1999/xlink"
 xmlns:xodm="http://www.corel.com/coreldraw/odm/2003">
 <defs>
  <style type="text/css">
   <![CDATA[
    .fil3 {fill:#FEFEFE}
    .fil2 {fill:#ECECEC;fill-rule:nonzero}
    .fil1 {fill:#F8F8F8;fill-rule:nonzero}
    .fil0 {fill:white;fill-rule:nonzero}
   ]]>
  </style>
 </defs>
 <g id="Layer_x0020_1">
  <metadata id="CorelCorpID_0Corel-Layer"/>
  <g id="_1864926760560">
   <path class="fil0" d="M0.16 0.01l0.39 0c0.08,0 0.15,0.07 0.15,0.15l0 0.39c0,0.08 -0.07,0.15 -0.15,0.15l-0.39 0c-0.08,0 -0.15,-0.07 -0.15,-0.15l0 -0.39c0,-0.08 0.07,-0.15 0.15,-0.15z"/>
   <path class="fil1" d="M0.16 0l0.39 0c0.05,0 0.09,0.02 0.11,0.05 0.03,0.02 0.05,0.06 0.05,0.11l0 0.39c0,0.05 -0.02,0.09 -0.05,0.11 -0.02,0.03 -0.06,0.05 -0.11,0.05l-0.39 0c-0.05,0 -0.09,-0.02 -0.11,-0.05 -0.03,-0.02 -0.05,-0.06 -0.05,-0.11l0 -0.39c0,-0.05 0.02,-0.09 0.05,-0.11 0.02,-0.03 0.06,-0.05 0.11,-0.05zm0.39 0.02l-0.39 0c-0.04,0 -0.07,0.02 -0.1,0.04 -0.02,0.03 -0.04,0.06 -0.04,0.1l0 0.39c0,0.04 0.02,0.07 0.04,0.1 0.03,0.02 0.06,0.04 0.1,0.04l0.39 0c0.04,0 0.07,-0.02 0.1,-0.04 0.02,-0.02 0.04,-0.06 0.04,-0.1l0 -0.39c0,-0.04 -0.02,-0.07 -0.04,-0.1 -0.02,-0.02 -0.06,-0.04 -0.1,-0.04z"/>
   <g>
    <path class="fil2" d="M0.51 0.28c-0.01,-0.01 -0.01,-0.02 -0.02,-0.03 -0.01,-0.01 -0.02,-0.01 -0.03,-0.02 -0.02,0 -0.03,-0.01 -0.04,-0.01 -0.02,0 -0.04,0.01 -0.05,0.02 -0.01,0 -0.01,0 -0.01,0.01 -0.01,-0.01 -0.01,-0.01 -0.02,-0.01 -0.01,-0.01 -0.03,-0.02 -0.05,-0.02 -0.01,0 -0.02,0.01 -0.03,0.01 -0.02,0.01 -0.03,0.01 -0.04,0.02 0,0.01 -0.01,0.02 -0.02,0.03 0,0.01 0,0.03 0,0.04 0,0.01 0,0.02 0,0.04 0.01,0.01 0.01,0.02 0.02,0.03 0.01,0.02 0.03,0.04 0.05,0.06 0.03,0.03 0.07,0.05 0.07,0.05l0.01 0.01c0,0 0.01,0 0.01,0l0.01 -0.01c0,0 0.04,-0.02 0.07,-0.05 0.02,-0.02 0.04,-0.04 0.05,-0.06 0.01,-0.01 0.01,-0.02 0.02,-0.03 0,-0.02 0,-0.03 0,-0.04 0,-0.01 0,-0.03 0,-0.04z"/>
    <path class="fil3" d="M0.36 0.48l0 0c0.02,-0.01 0.04,-0.03 0.06,-0.05 0.02,-0.02 0.04,-0.03 0.05,-0.05 0,-0.01 0.01,-0.02 0.01,-0.03 0.01,-0.01 0.01,-0.02 0.01,-0.03 0,-0.01 0,-0.02 -0.01,-0.03 0,-0.01 0,-0.01 -0.01,-0.02 -0.01,-0.01 -0.02,-0.01 -0.02,-0.02 -0.01,0 -0.02,0 -0.03,0 -0.02,0 -0.03,0 -0.04,0.01 0,0 -0.01,0 -0.01,0.01l-0.01 0.01 -0.02 -0.01c0,-0.01 -0.01,-0.01 -0.01,-0.01 -0.01,-0.01 -0.02,-0.01 -0.04,-0.01 -0.01,0 -0.02,0 -0.03,0 0,0.01 -0.01,0.01 -0.02,0.02 0,0.01 -0.01,0.01 -0.01,0.02 -0.01,0.01 -0.01,0.02 -0.01,0.03 0,0.01 0,0.02 0.01,0.03 0,0.01 0.01,0.02 0.01,0.03 0.01,0.02 0.03,0.03 0.05,0.05 0.02,0.02 0.04,0.04 0.06,0.05l0.01 0z"/>
   </g>
  </g>
 </g>
</svg>
